<?xml version="1.0" encoding="UTF-8"?>
<!DOCTYPE svg PUBLIC "-//W3C//DTD SVG 1.1//EN" "http://www.w3.org/Graphics/SVG/1.1/DTD/svg11.dtd">
<svg xmlns="http://www.w3.org/2000/svg" version="1.1" width="1001px" height="249px" style="shape-rendering:geometricPrecision; text-rendering:geometricPrecision; image-rendering:optimizeQuality; fill-rule:evenodd; clip-rule:evenodd" xmlns:xlink="http://www.w3.org/1999/xlink">
<g><path style="opacity:1" fill="#000000" d="M 233.5,47.5 C 242.167,47.5 250.833,47.5 259.5,47.5C 259.5,94.1667 259.5,140.833 259.5,187.5C 250.833,187.5 242.167,187.5 233.5,187.5C 233.5,140.833 233.5,94.1667 233.5,47.5 Z"/></g>
<g><path style="opacity:1" fill="#000000" d="M 852.5,47.5 C 861.167,47.5 869.833,47.5 878.5,47.5C 878.333,76.1686 878.5,104.835 879,133.5C 887.553,122.614 895.72,111.447 903.5,100C 912.827,99.5002 922.161,99.3335 931.5,99.5C 931.649,100.552 931.483,101.552 931,102.5C 921.975,114.025 913.141,125.691 904.5,137.5C 916.256,154.011 928.256,170.344 940.5,186.5C 930.183,187.666 919.849,187.832 909.5,187C 899.455,173.078 889.289,159.244 879,145.5C 878.5,159.496 878.333,173.496 878.5,187.5C 869.5,187.5 860.5,187.5 851.5,187.5C 851.172,140.761 851.505,94.0947 852.5,47.5 Z"/></g>
<g><path style="opacity:1" fill="#000000" d="M 210.5,56.5 C 212.5,56.5 214.5,56.5 216.5,56.5C 216.5,64.1667 216.5,71.8333 216.5,79.5C 161.833,79.5 107.167,79.5 52.5,79.5C 52.5,82.8333 52.5,86.1667 52.5,89.5C 50.1667,89.5 47.8333,89.5 45.5,89.5C 45.5,82.1667 45.5,74.8333 45.5,67.5C 100.5,67.5 155.5,67.5 210.5,67.5C 210.5,63.8333 210.5,60.1667 210.5,56.5 Z"/></g>
<g><path style="opacity:1" fill="#000000" d="M 611.5,70.5 C 619.833,70.5 628.167,70.5 636.5,70.5C 636.5,80.1667 636.5,89.8333 636.5,99.5C 642.167,99.5 647.833,99.5 653.5,99.5C 653.5,106.833 653.5,114.167 653.5,121.5C 647.833,121.5 642.167,121.5 636.5,121.5C 636.5,143.5 636.5,165.5 636.5,187.5C 627.833,187.5 619.167,187.5 610.5,187.5C 610.5,165.5 610.5,143.5 610.5,121.5C 605.167,121.5 599.833,121.5 594.5,121.5C 594.5,114.167 594.5,106.833 594.5,99.5C 599.833,99.5 605.167,99.5 610.5,99.5C 610.194,89.7504 610.527,80.0838 611.5,70.5 Z"/></g>
<g><path style="opacity:1" fill="#000000" d="M 310.5,97.5 C 333.248,94.2944 350.748,102.294 363,121.5C 374.294,148.837 367.461,170.337 342.5,186C 317.154,195.957 296.32,190.124 280,168.5C 268.038,144.31 272.205,123.476 292.5,106C 298.208,102.31 304.208,99.4768 310.5,97.5 Z M 319.5,120.5 C 339.491,123.667 346.658,135 341,154.5C 333.361,166.698 322.861,169.865 309.5,164C 300.339,157.499 296.839,148.665 299,137.5C 302.429,127.558 309.263,121.892 319.5,120.5 Z"/></g>
<g><path style="opacity:1" fill="#000000" d="M 441.5,97.5 C 442.675,97.281 443.675,97.6143 444.5,98.5C 452.286,113.073 459.786,127.74 467,142.5C 473.689,128.288 480.522,114.121 487.5,100C 496.494,99.5002 505.494,99.3336 514.5,99.5C 500.907,130.685 486.241,161.352 470.5,191.5C 460.512,176.202 451.012,160.535 442,144.5C 434.187,159.46 425.853,174.126 417,188.5C 416.28,190.255 415.113,191.089 413.5,191C 398.458,160.754 384.125,130.254 370.5,99.5C 379.857,99.1684 389.19,99.5017 398.5,100.5C 405.863,114.56 412.696,128.893 419,143.5C 426.767,128.298 434.267,112.965 441.5,97.5 Z"/></g>
<g><path style="opacity:1" fill="#000000" d="M 544.5,97.5 C 556.396,96.1563 567.73,97.9897 578.5,103C 581.179,104.346 583.179,106.346 584.5,109C 582.408,116.539 580.241,124.039 578,131.5C 570.394,121.944 560.561,117.777 548.5,119C 545.022,121.706 544.689,124.706 547.5,128C 554.007,131.058 560.674,133.725 567.5,136C 587.84,145.518 592.34,160.018 581,179.5C 568.696,190.379 554.53,193.546 538.5,189C 531.916,187.624 526.082,184.791 521,180.5C 522.012,172.438 523.678,164.438 526,156.5C 526.414,156.043 526.914,155.709 527.5,155.5C 535.172,165.169 545.172,169.669 557.5,169C 563.545,167.466 564.878,164.132 561.5,159C 550.29,155.06 539.623,150.06 529.5,144C 520.238,133.794 519.071,122.628 526,110.5C 530.914,104.301 537.08,99.9673 544.5,97.5 Z"/></g>
<g><path style="opacity:1" fill="#000000" d="M 694.5,97.5 C 719.946,94.6336 738.113,104.634 749,127.5C 755.839,151.989 748.673,171.156 727.5,185C 700.549,196.639 678.716,190.473 662,166.5C 649.738,132.405 660.571,109.405 694.5,97.5 Z M 702.5,120.5 C 720.093,122.26 727.926,131.926 726,149.5C 719.375,166.157 707.875,170.657 691.5,163C 680.079,152.895 678.579,141.395 687,128.5C 691.361,124.071 696.528,121.404 702.5,120.5 Z"/></g>
<g><path style="opacity:1" fill="#000000" d="M 798.5,97.5 C 814.502,94.9961 828.502,98.9961 840.5,109.5C 838.3,118.308 835.8,126.974 833,135.5C 823.484,121.002 810.984,117.502 795.5,125C 785.353,134.954 783.853,146.121 791,158.5C 797.93,166.023 806.43,168.523 816.5,166C 823.521,163.477 828.854,158.977 832.5,152.5C 833.086,152.709 833.586,153.043 834,153.5C 835.94,161.76 838.106,169.927 840.5,178C 828.555,188.823 814.555,192.823 798.5,190C 779.847,185.347 767.68,173.847 762,155.5C 757.726,125.699 769.892,106.366 798.5,97.5 Z"/></g>
<g><path style="opacity:1" fill="#000000" d="M 192.5,98.5 C 194.5,98.5 196.5,98.5 198.5,98.5C 198.5,106.5 198.5,114.5 198.5,122.5C 149.833,122.5 101.167,122.5 52.5,122.5C 52.5,144.167 52.5,165.833 52.5,187.5C 43.1667,187.5 33.8333,187.5 24.5,187.5C 24.2065,183.563 24.5399,179.73 25.5,176C 32.1583,175.5 38.825,175.334 45.5,175.5C 45.5,154.167 45.5,132.833 45.5,111.5C 94.5,111.5 143.5,111.5 192.5,111.5C 192.5,107.167 192.5,102.833 192.5,98.5 Z"/></g>
</svg>
