<?xml version="1.0" encoding="UTF-8"?>
<!DOCTYPE svg PUBLIC "-//W3C//DTD SVG 1.1//EN" "http://www.w3.org/Graphics/SVG/1.1/DTD/svg11.dtd">
<svg xmlns="http://www.w3.org/2000/svg" version="1.1" width="1093px" height="228px" style="shape-rendering:geometricPrecision; text-rendering:geometricPrecision; image-rendering:optimizeQuality; fill-rule:evenodd; clip-rule:evenodd" xmlns:xlink="http://www.w3.org/1999/xlink">
<g><path style="opacity:1" fill="#f4e5e0" d="M 238.5,45.5 C 238.167,45.5 237.833,45.5 237.5,45.5C 237.297,43.9557 236.63,42.6223 235.5,41.5C 236.464,34.5581 236.797,27.5581 236.5,20.5C 161.833,20.5 87.1667,20.5 12.5,20.5C 12.5,73.1667 12.5,125.833 12.5,178.5C 22.5,178.5 32.5,178.5 42.5,178.5C 36.1667,179.167 29.8333,179.833 23.5,180.5C 19.2648,179.564 14.9315,179.231 10.5,179.5C 11.2461,126.272 11.5794,73.1052 11.5,20C 87.1659,19.5 162.833,19.3333 238.5,19.5C 238.5,28.1667 238.5,36.8333 238.5,45.5 Z"/></g>
<g><path style="opacity:1" fill="#f7f7f7" d="M 237.5,45.5 C 237.5,45.8333 237.5,46.1667 237.5,46.5C 172.5,46.5 107.5,46.5 42.5,46.5C 42.5,54.8333 42.5,63.1667 42.5,71.5C 101.049,70.8435 159.382,71.5101 217.5,73.5C 217.303,81.2216 217.303,88.8882 217.5,96.5C 217.5,96.8333 217.5,97.1667 217.5,97.5C 216.662,97.8417 216.328,98.5084 216.5,99.5C 158.5,99.5 100.5,99.5 42.5,99.5C 42.5,125.833 42.5,152.167 42.5,178.5C 32.5,178.5 22.5,178.5 12.5,178.5C 12.5,125.833 12.5,73.1667 12.5,20.5C 87.1667,20.5 161.833,20.5 236.5,20.5C 236.797,27.5581 236.464,34.5581 235.5,41.5C 236.63,42.6223 237.297,43.9557 237.5,45.5 Z"/></g>
<g><path style="opacity:1" fill="#f9f9f9" d="M 299.5,186.5 C 299.5,187.833 299.5,189.167 299.5,190.5C 290.783,191.743 282.117,191.743 273.5,190.5C 272.791,189.596 271.791,189.263 270.5,189.5C 270.169,136.928 270.503,84.4283 271.5,32C 280.215,31.1959 288.882,31.3626 297.5,32.5C 297.417,80.808 297.583,129.141 298,177.5C 298.502,180.513 299.002,183.513 299.5,186.5 Z"/></g>
<g><path style="opacity:1" fill="#f9f8f8" d="M 1009.5,120.5 C 1010.07,123.758 1010.23,127.091 1010,130.5C 1019.44,116.726 1029.27,103.226 1039.5,90C 1049.83,89.3333 1060.17,89.3333 1070.5,90C 1070.83,90.3333 1071.17,90.6667 1071.5,91C 1060.7,104.792 1050.03,118.625 1039.5,132.5C 1053.38,151.755 1067.38,170.922 1081.5,190C 1072.13,191.283 1062.8,191.783 1053.5,191.5C 1050.73,191.214 1048.07,190.547 1045.5,189.5C 1033.65,173.119 1021.82,156.786 1010,140.5C 1009.5,157.163 1009.33,173.83 1009.5,190.5C 1001.18,191.755 993.182,191.755 985.5,190.5C 985.938,190.565 986.272,190.399 986.5,190C 984.684,188.685 983.017,187.185 981.5,185.5C 980.628,134.169 980.628,82.836 981.5,31.5C 990.5,31.5 999.5,31.5 1008.5,31.5C 1008.17,61.338 1008.5,91.0047 1009.5,120.5 Z"/></g>
<g><path style="opacity:1" fill="#000000" d="M 237.5,46.5 C 241.833,46.5 246.167,46.5 250.5,46.5C 250.5,53.8333 250.5,61.1667 250.5,68.5C 250.5,69.5 250.5,70.5 250.5,71.5C 240.652,71.1729 230.986,71.5062 221.5,72.5C 220.292,73.2341 218.959,73.5674 217.5,73.5C 159.382,71.5101 101.049,70.8435 42.5,71.5C 42.5,63.1667 42.5,54.8333 42.5,46.5C 107.5,46.5 172.5,46.5 237.5,46.5 Z"/></g>
<g><path style="opacity:1" fill="#220100" d="M 237.5,46.5 C 237.5,46.1667 237.5,45.8333 237.5,45.5C 237.833,45.5 238.167,45.5 238.5,45.5C 242.833,45.5 247.167,45.5 251.5,45.5C 251.5,53.1667 251.5,60.8333 251.5,68.5C 251.167,68.5 250.833,68.5 250.5,68.5C 250.5,61.1667 250.5,53.8333 250.5,46.5C 246.167,46.5 241.833,46.5 237.5,46.5 Z"/></g>
<g><path style="opacity:1" fill="#faf0eb" d="M 299.5,186.5 C 299.002,183.513 298.502,180.513 298,177.5C 297.583,129.141 297.417,80.808 297.5,32.5C 288.882,31.3626 280.215,31.1959 271.5,32C 270.503,84.4283 270.169,136.928 270.5,189.5C 271.791,189.263 272.791,189.596 273.5,190.5C 272.167,190.5 270.833,190.5 269.5,190.5C 269.5,137.167 269.5,83.8333 269.5,30.5C 279.926,29.873 290.093,30.5396 300,32.5C 300.832,84.0016 300.665,135.335 299.5,186.5 Z"/></g>
<g><path style="opacity:1" fill="#fae6e2" d="M 731.5,89.5 C 730.67,79.3415 730.17,69.0081 730,58.5C 721.377,58.4432 712.543,58.4432 703.5,58.5C 703.828,69.0135 703.494,79.3468 702.5,89.5C 702.333,78.8281 702.5,68.1615 703,57.5C 707.753,56.8462 712.587,56.5128 717.5,56.5C 722.671,56.3564 727.671,56.8564 732.5,58C 731.513,68.4179 731.18,78.9179 731.5,89.5 Z"/></g>
<g><path style="opacity:1" fill="#f9f8f8" d="M 731.5,89.5 C 738.677,89.0398 745.677,89.5398 752.5,91C 751.518,98.747 751.185,106.58 751.5,114.5C 745.132,114.17 738.798,114.504 732.5,115.5C 733.648,140.411 733.648,165.411 732.5,190.5C 722.504,191.802 712.504,191.802 702.5,190.5C 702.257,165.233 702.257,140.066 702.5,115C 696.175,114.5 689.842,114.334 683.5,114.5C 683.334,106.493 683.5,98.4931 684,90.5C 690.076,89.5236 696.242,89.1903 702.5,89.5C 703.494,79.3468 703.828,69.0135 703.5,58.5C 712.543,58.4432 721.377,58.4432 730,58.5C 730.17,69.0081 730.67,79.3415 731.5,89.5 Z"/></g>
<g><path style="opacity:1" fill="#f7ede7" d="M 1009.5,120.5 C 1008.5,91.0047 1008.17,61.338 1008.5,31.5C 999.5,31.5 990.5,31.5 981.5,31.5C 980.628,82.836 980.628,134.169 981.5,185.5C 983.017,187.185 984.684,188.685 986.5,190C 986.272,190.399 985.938,190.565 985.5,190.5C 983.5,190.5 981.5,190.5 979.5,190.5C 979.5,137.167 979.5,83.8333 979.5,30.5C 989.5,30.5 999.5,30.5 1009.5,30.5C 1009.5,60.5 1009.5,90.5 1009.5,120.5 Z"/></g>
<g><path style="opacity:1" fill="#360000" d="M 250.5,68.5 C 250.833,68.5 251.167,68.5 251.5,68.5C 251.5,69.8333 251.5,71.1667 251.5,72.5C 241.5,72.5 231.5,72.5 221.5,72.5C 230.986,71.5062 240.652,71.1729 250.5,71.5C 250.5,70.5 250.5,69.5 250.5,68.5 Z"/></g>
<g><path style="opacity:1" fill="#f9f8f7" d="M 362.5,86.5 C 384.843,84.9188 402.677,93.2521 416,111.5C 430.975,139.226 426.142,163.392 401.5,184C 371.073,201.359 344.907,196.192 323,168.5C 308.981,140.091 314.147,115.925 338.5,96C 346.01,91.3354 354.01,88.1688 362.5,86.5 Z M 365.5,113.5 C 387.48,114.629 397.313,125.963 395,147.5C 386.549,166.428 373.049,171.262 354.5,162C 341.88,150.659 340.047,137.826 349,123.5C 354.056,118.592 359.556,115.259 365.5,113.5 Z"/></g>
<g><path style="opacity:1" fill="#f9f7f6" d="M 631.5,86.5 C 646.636,85.3215 660.136,89.3215 672,98.5C 670.179,107.596 667.845,116.596 665,125.5C 655.623,114.527 644.123,110.027 630.5,112C 629.5,113 628.5,114 627.5,115C 628.711,116.113 628.711,117.28 627.5,118.5C 628.04,119.748 628.707,120.915 629.5,122C 639.833,126.333 650.167,130.667 660.5,135C 676.424,146.614 679.591,161.114 670,178.5C 657.083,193.014 641.249,197.847 622.5,193C 616.275,191.258 610.275,188.925 604.5,186C 602.024,184.691 600.024,182.858 598.5,180.5C 600.731,171.843 602.898,163.176 605,154.5C 606.011,153.663 607.178,153.33 608.5,153.5C 608.393,155.903 609.393,157.736 611.5,159C 620.51,167.498 631.176,170.832 643.5,169C 647.353,166.947 649.019,163.947 648.5,160C 647.5,159 646.5,158 645.5,157C 633.883,152.575 622.55,147.575 611.5,142C 600.812,133.093 597.645,121.926 602,108.5C 607.99,96.0102 617.823,88.6768 631.5,86.5 Z"/></g>
<g><path style="opacity:1" fill="#f9f8f7" d="M 802.5,86.5 C 834.143,85.4791 854.81,99.9791 864.5,130C 866.109,164.262 850.276,185.762 817,194.5C 793.404,195.868 775.071,186.534 762,166.5C 748.93,135.927 756.097,111.427 783.5,93C 789.675,90.109 796.008,87.9424 802.5,86.5 Z M 805.5,113.5 C 827.68,114.22 837.514,125.554 835,147.5C 829.644,162.266 819.144,168.432 803.5,166C 787.744,160.131 781.411,149.131 784.5,133C 787.853,122.478 794.853,115.978 805.5,113.5 Z"/></g>
<g><path style="opacity:1" fill="#f9f7f6" d="M 922.5,86.5 C 939.258,85.2529 953.925,90.0862 966.5,101C 963.939,109.072 961.606,117.238 959.5,125.5C 960.326,127.548 959.659,129.215 957.5,130.5C 946.767,114.191 932.767,110.024 915.5,118C 903.589,128.24 901.089,140.407 908,154.5C 917.259,166.719 929.092,169.885 943.5,164C 948.645,160.689 952.978,156.522 956.5,151.5C 957.5,150.167 958.5,150.167 959.5,151.5C 960.983,159.302 962.817,167.302 965,175.5C 965.808,177.579 965.641,179.579 964.5,181.5C 947.779,194.19 929.112,197.023 908.5,190C 879.121,174.435 869.288,150.935 879,119.5C 888.004,101.099 902.504,90.0986 922.5,86.5 Z"/></g>
<g><path style="opacity:1" fill="#f9f7f7" d="M 509.5,86.5 C 519.765,104.027 529.265,122.027 538,140.5C 545.174,123.32 553.008,106.487 561.5,90C 571.993,89.0276 582.326,89.361 592.5,91C 575.628,125.91 558.628,160.743 541.5,195.5C 530.577,178.66 520.41,161.326 511,143.5C 510.439,142.978 509.772,142.645 509,142.5C 498.596,160.304 487.93,177.971 477,195.5C 460.407,160.649 443.574,125.982 426.5,91.5C 426.709,90.914 427.043,90.414 427.5,90C 437.833,89.3333 448.167,89.3333 458.5,90C 467.009,106.518 474.842,123.351 482,140.5C 491.432,122.587 500.599,104.587 509.5,86.5 Z"/></g>
<g><path style="opacity:1" fill="#010000" d="M 217.5,97.5 C 221.452,98.2721 225.452,98.6054 229.5,98.5C 229.817,107.418 229.484,116.251 228.5,125C 170.999,125.167 113.665,125.667 56.5,126.5C 55.5022,152.328 55.1689,178.328 55.5,204.5C 45.5,204.5 35.5,204.5 25.5,204.5C 25.8222,198.642 25.4889,192.975 24.5,187.5C 23.5318,185.393 23.1984,183.059 23.5,180.5C 29.8333,179.833 36.1667,179.167 42.5,178.5C 43.4978,152.672 43.8311,126.672 43.5,100.5C 101.336,100.832 159.002,100.499 216.5,99.5C 216.328,98.5084 216.662,97.8417 217.5,97.5 Z"/></g>
<g><path style="opacity:1" fill="#232323" d="M 216.5,99.5 C 159.002,100.499 101.336,100.832 43.5,100.5C 43.8311,126.672 43.4978,152.672 42.5,178.5C 42.5,152.167 42.5,125.833 42.5,99.5C 100.5,99.5 158.5,99.5 216.5,99.5 Z"/></g>
<g><path style="opacity:1" fill="#370000" d="M 217.5,97.5 C 217.5,97.1667 217.5,96.8333 217.5,96.5C 221.824,96.9272 226.158,97.2605 230.5,97.5C 230.818,107.083 230.485,116.583 229.5,126C 171.834,126.5 114.168,126.667 56.5,126.5C 113.665,125.667 170.999,125.167 228.5,125C 229.484,116.251 229.817,107.418 229.5,98.5C 225.452,98.6054 221.452,98.2721 217.5,97.5 Z"/></g>
<g><path style="opacity:1" fill="#330000" d="M 56.5,126.5 C 56.5,152.833 56.5,179.167 56.5,205.5C 45.8333,205.5 35.1667,205.5 24.5,205.5C 24.5,199.5 24.5,193.5 24.5,187.5C 25.4889,192.975 25.8222,198.642 25.5,204.5C 35.5,204.5 45.5,204.5 55.5,204.5C 55.1689,178.328 55.5022,152.328 56.5,126.5 Z"/></g>
</svg>
